PathFileType	4	(X/Y/Z)	D:/视觉行为平台/test_2/20260814/mocap/street1/street1-Unnamed.trc
DataRate	CameraRate	NumFrames	NumMarkers	Units	OrigDataRate	OrigDataStartFrame	OrigNumFrames	useTimeStamp
90	90	     49	0	mm	90	5658	     22628	         1
Frame#	Time	Timestamp	
			X1	Y1	Z1	X2	Y2	Z2	X3	Y3	Z3	X4	Y4	Z4	X5	Y5	Z5	X6	Y6	Z6	X7	Y7	Z7	X8	Y8	Z8	X9	Y9	Z9	X10	Y10	Z10	X11	Y11	Z11	X12	Y12	Z12	X13	Y13	Z13	X14	Y14	Z14	X15	Y15	Z15	X16	Y16	Z16	X17	Y17	Z17	X18	Y18	Z18	X19	Y19	Z19	X20	Y20	Z20	X21	Y21	Z21	X22	Y22	Z22	X23	Y23	Z23	X24	Y24	Z24	X25	Y25	Z25	X26	Y26	Z26	X27	Y27	Z27	X28	Y28	Z28	X29	Y29	Z29	X30	Y30	Z30	X31	Y31	Z31	X32	Y32	Z32	X33	Y33	Z33	X34	Y34	Z34	X35	Y35	Z35	X36	Y36	Z36	X37	Y37	Z37	X38	Y38	Z38	X39	Y39	Z39	X40	Y40	Z40	X41	Y41	Z41	X42	Y42	Z42	X43	Y43	Z43	X44	Y44	Z44	X45	Y45	Z45	X46	Y46	Z46	X47	Y47	Z47	X48	Y48	Z48	X49	Y49	Z49	X50	Y50	Z50	X51	Y51	Z51	X52	Y52	Z52	X53	Y53	Z53	X54	Y54	Z54	X55	Y55	Z55	

5658	62.855	1787219009870	-484.612030	796.131226	-1401.364014	-383.787323	1383.066406	-1347.280518	-483.004791	859.649048	-1318.581787	-383.797607	1070.597778	-1280.839966	1445.011719	523.815002	1443.882690	
5659	62.866	1787219009881	-483.485382	793.775513	-1407.856567	-384.799011	1381.111328	-1354.426392	-482.525665	857.272644	-1325.248901	-384.062195	1068.843994	-1287.987915	1445.011719	523.815002	1443.882690	
5660	62.877	1787219009892	-482.447052	791.326416	-1414.728516	-385.736877	1379.255493	-1361.580811	-384.250946	1067.010498	-1295.352173	-500.214691	804.678284	-1366.051758	1445.011719	523.815002	1443.882690	
5661	62.888	1787219009904	-481.627319	789.028259	-1421.950684	-387.021881	1377.462158	-1368.790894	-481.737183	853.047791	-1339.794067	-384.748688	1065.126831	-1302.773193	1444.495239	524.111633	1443.405273	
5662	62.900	1787219009915	-480.960327	786.832397	-1429.726929	-388.366058	1375.530273	-1376.152954	-481.444489	850.993347	-1347.607788	-385.180206	1063.230469	-1310.434937	1444.864014	523.967102	1443.667603	
5663	62.911	1787219009926	-480.379456	784.940796	-1437.813599	-389.723022	1373.924561	-1383.341919	-481.552521	849.141602	-1355.701172	-385.830536	1061.365479	-1318.042969	1445.418701	523.598694	1444.910522	
5664	62.922	1787219009937	-480.019226	783.014404	-1446.289062	-391.220459	1372.236328	-1390.523804	-386.373260	1059.744263	-1326.008911	-498.687225	796.192444	-1397.908691	1445.330322	523.650574	1444.613281	
5665	62.933	1787219009948	-479.735962	781.341187	-1455.070068	-392.881317	1370.533569	-1398.114868	-481.593658	845.225769	-1372.671997	-387.123383	1058.072632	-1333.924683	1444.918091	524.126343	1444.127563	
5666	62.944	1787219009959	-479.501617	779.545593	-1464.198608	-394.577637	1369.059204	-1405.412842	-481.653717	843.373047	-1381.735596	-387.922668	1056.311401	-1342.257202	1444.938599	523.854309	1444.123901	
5667	62.955	1787219009970	-479.468903	777.913086	-1473.553833	-396.228210	1367.599121	-1413.050415	-481.647736	841.500732	-1390.784668	-388.616150	1054.779297	-1350.718872	1444.864014	523.967102	1443.667603	
5668	62.966	1787219009981	-479.483795	776.648865	-1483.325195	-398.057465	1366.123779	-1420.844971	-389.451141	1053.093628	-1359.229126	-498.481537	789.276245	-1434.803101	1444.864014	523.967102	1443.667603	
5669	62.977	1787219009992	-479.506073	775.713257	-1493.174683	-399.722137	1364.944092	-1428.726318	-481.695099	838.348755	-1409.695435	-390.427551	1051.855835	-1367.782471	1444.420654	524.224365	1442.949097	
5670	62.988	1787219010004	-479.573303	775.065430	-1503.397217	-401.363953	1364.096680	-1436.809692	-481.971619	837.307617	-1419.341797	-391.269043	1050.946655	-1376.430786	1444.811523	523.997131	1443.789307	
5671	63.000	1787219010014	-479.677368	774.493103	-1513.763794	-403.119751	1363.516479	-1444.868530	-481.924469	836.257385	-1429.462891	-392.301178	1050.010620	-1385.482910	1445.086426	523.702209	1444.338989	
5672	63.011	1787219010026	-479.626556	774.199890	-1524.425903	-404.684235	1363.092651	-1452.978149	-482.437256	835.628662	-1439.652832	-393.462799	1049.544312	-1394.554565	1444.541504	524.090942	1443.121704	
5673	63.022	1787219010037	-479.470795	774.136169	-1534.945801	-406.448944	1362.870361	-1461.157959	-482.560455	835.308472	-1450.198364	-394.505737	1049.205200	-1403.875122	1444.864014	523.967102	1443.667603	
5674	63.033	1787219010048	-480.192108	774.264587	-1546.725098	-407.995483	1363.127075	-1469.384155	-482.831512	835.327271	-1460.715820	-395.948486	1049.387939	-1412.850708	1444.420654	524.224365	1442.949097	
5675	63.044	1787219010059	-479.896698	775.005432	-1557.608887	-409.617310	1363.790283	-1477.524170	-483.229156	835.712952	-1471.598511	-397.251038	1049.949463	-1422.473877	1444.864014	523.967102	1443.667603	
5676	63.055	1787219010070	-479.654633	776.294495	-1568.916870	-411.154816	1364.896851	-1485.639526	-483.794067	836.607849	-1482.508057	-398.093445	1050.617554	-1430.498535	1444.864014	523.967102	1443.667603	
5677	63.066	1787219010081	-479.277618	777.685059	-1580.413818	-412.626495	1366.160889	-1493.664062	-484.215057	837.668640	-1493.694580	-400.777191	1051.054932	-1442.191895	1444.811523	523.997131	1443.789307	
5678	63.077	1787219010092	-478.826202	779.397095	-1592.073975	-414.368256	1367.493042	-1501.281860	-484.382416	838.860657	-1505.006348	-402.401520	1052.273071	-1451.485962	1444.890137	524.579834	1443.499023	
5679	63.088	1787219010104	-478.127228	781.009033	-1603.820190	-416.203827	1369.273193	-1510.787354	-485.930420	840.403076	-1517.857422	-403.829224	1053.742065	-1460.730225	1444.864014	523.967102	1443.667603	
5680	63.100	1787219010114	-477.558258	783.217896	-1615.265747	-417.932709	1370.876709	-1518.683228	-486.238922	841.812866	-1529.734497	-402.124969	1057.152466	-1466.848999	1444.864014	523.967102	1443.667603	
5681	63.111	1787219010125	-476.484894	784.270203	-1628.537231	-419.623199	1372.081177	-1526.378296	-487.552521	842.568970	-1542.451782	-403.935577	1058.277954	-1476.321533	1445.011719	523.815002	1443.882690	
5682	63.122	1787219010137	-476.397888	784.747314	-1640.500732	-421.378204	1373.164185	-1533.822754	-487.874359	843.572266	-1555.067261	-405.904938	1059.023315	-1485.648560	1444.986938	524.079224	1443.351318	
5683	63.133	1787219010148	-475.576324	786.442993	-1653.355713	-423.110809	1373.852905	-1541.412109	-488.573730	844.602234	-1567.555664	-408.376953	1059.510498	-1494.863525	1445.134644	523.927124	1443.566406	
5684	63.144	1787219010159	-471.475464	789.355042	-1666.855347	-424.956390	1374.368896	-1548.776001	-488.649567	840.464600	-1577.822021	-410.728729	1059.898926	-1504.359131	1445.505249	524.000854	1443.441284	
5685	63.155	1787219010170	-472.657684	789.799133	-1679.993774	-426.775330	1374.565552	-1556.149780	-486.151031	843.018311	-1588.391602	-413.222382	1059.530884	-1513.335083	1445.908691	524.134766	1443.666382	
5686	63.166	1787219010181	-471.338501	791.051392	-1693.283936	-428.491180	1374.361084	-1563.464722	-415.726196	1058.907837	-1522.813965	1445.430420	524.386108	1442.881958	
5687	63.177	1787219010193	-470.910309	791.938721	-1706.697388	-418.248413	1058.396851	-1531.771851	-493.964691	846.228394	-1623.549438	-407.111786	1348.807129	-1466.183472	1446.261108	523.784363	1444.183472	
5688	63.188	1787219010204	-469.638031	793.578430	-1720.231079	-408.926605	1348.276245	-1473.582520	-420.934174	1057.831177	-1540.664185	1446.713013	523.510803	1444.911499	
5689	63.200	1787219010214	-468.976105	794.773682	-1733.660645	-411.009247	1347.894897	-1480.840820	-423.033020	1056.826416	-1549.982666	1446.508545	523.694885	1444.604248	
5690	63.211	1787219010225	-468.115387	796.658508	-1747.143921	-412.643829	1347.475830	-1488.084961	-425.490601	1055.989136	-1558.952393	1446.098511	524.235352	1443.923950	
5691	63.222	1787219010237	-467.370880	798.532227	-1760.292236	-414.178436	1346.960815	-1495.108154	-427.397583	1055.024780	-1567.833252	-493.924469	848.097595	-1675.692871	1446.050415	524.471252	1443.998535	
5692	63.233	1787219010248	-466.550201	800.764038	-1773.270264	-415.675934	1347.108032	-1502.200439	-429.453918	1054.469604	-1576.161865	1445.530029	524.657898	1443.343140	
5693	63.244	1787219010259	-470.719360	799.685913	-1782.580322	-416.661560	1346.414307	-1508.332153	-430.896820	1053.789062	-1584.334106	-493.134552	810.148926	-1748.370728	1444.950562	526.228638	1441.353394	
5694	63.255	1787219010270	-470.252563	802.121521	-1794.835815	-417.470825	1346.117065	-1513.579590	-492.497284	812.208435	-1760.790894	1445.188477	525.336182	1443.620117	
5695	63.266	1787219010281	-469.013184	804.659790	-1806.562866	-418.060730	1345.419067	-1518.131592	-493.235535	853.277710	-1723.622437	1445.008179	525.379028	1443.304932	
5696	63.277	1787219010292	-421.656128	1347.857300	-1530.613403	-492.895203	855.136292	-1734.465454	-468.542694	807.267456	-1817.938232	1445.008179	525.379028	1443.304932	
5697	63.288	1787219010303	-468.355042	809.027710	-1828.148315	-422.659515	1348.986816	-1537.559937	1445.317627	525.049316	1444.351196	
5698	63.300	1787219010314	-467.279724	811.601135	-1838.566284	-423.816284	1349.883301	-1543.708130	1444.845581	525.198669	1444.234741	
5699	63.311	1787219010326	-465.951019	814.169250	-1848.620117	-424.105377	1350.155396	-1549.475586	1444.947388	524.460327	1445.286743	
5700	63.322	1787219010337	-465.262634	815.656494	-1857.889526	-425.148590	1351.398804	-1556.120728	1444.729980	524.597961	1445.298828	
5701	63.333	1787219010348	-463.319458	817.930298	-1867.048584	1444.729980	524.597961	1445.298828	
5702	63.344	1787219010359	-460.898285	819.823303	-1876.373901	1444.056152	524.819458	1445.151733	
5703	63.355	1787219010370	-459.407074	821.154175	-1884.407837	1443.581421	525.119995	1444.390991	
5704	63.366	1787219010381	-458.069122	821.903137	-1892.378296	1443.740601	524.715088	1445.262085	
5705	63.377	1787219010392	-456.258240	822.490967	-1899.858276	1443.284424	525.249207	1444.781250	
5706	63.388	1787219010403	-454.437103	823.223267	-1907.467285	1443.412842	525.191772	1445.413330	
